<?xml version="1.0" encoding="utf-8"?>
<!DOCTYPE svg PUBLIC "-//W3C//DTD SVG 1.1//EN" "http://www.w3.org/Graphics/SVG/1.1/DTD/svg11.dtd">
<svg style="fill:whitesmoke" version="1.1" id="Layer_1" xmlns="http://www.w3.org/2000/svg" xmlns:xlink="http://www.w3.org/1999/xlink" x="0px" y="0px" viewBox="0 0 100 100" enable-background="new 0 0 100 100" xml:space="preserve">
  <g>
    <path d="M24.281,61.194c-0.503,0-1.007-0.188-1.396-0.567L8.993,47.085c-1.647-1.606-2.229-3.963-1.518-6.151  c0.71-2.188,2.566-3.753,4.844-4.083l19.197-2.789c1.099-0.154,2.108,0.599,2.267,1.691c0.159,1.093-0.598,2.108-1.691,2.267  l-19.198,2.79c-0.759,0.11-1.377,0.632-1.614,1.361c-0.237,0.73-0.043,1.516,0.505,2.051l13.892,13.541  c0.791,0.771,0.807,2.038,0.036,2.829C25.321,60.992,24.801,61.194,24.281,61.194z"></path>
    <path d="M27.239,92.079c-1.239,0-2.47-0.389-3.521-1.152c-1.862-1.354-2.776-3.602-2.387-5.868l3.279-19.121  c0.187-1.089,1.221-1.821,2.309-1.634c1.089,0.188,1.82,1.221,1.633,2.31l-3.279,19.121c-0.129,0.756,0.175,1.505,0.796,1.956  c0.62,0.45,1.427,0.509,2.106,0.152l17.171-9.027c0.977-0.514,2.187-0.138,2.701,0.84c0.514,0.978,0.138,2.187-0.84,2.701  l-17.171,9.027C29.151,91.849,28.192,92.079,27.239,92.079z"></path>
    <path d="M72.761,92.079c-0.953,0-1.911-0.23-2.796-0.695l-17.173-9.027c-0.978-0.515-1.354-1.724-0.84-2.701  c0.515-0.977,1.724-1.354,2.701-0.84l17.172,9.027c0.68,0.357,1.486,0.299,2.105-0.152c0.62-0.451,0.926-1.201,0.796-1.956  l-3.28-19.121c-0.187-1.089,0.545-2.122,1.634-2.31c1.084-0.188,2.122,0.545,2.31,1.634l3.28,19.121  c0.388,2.267-0.527,4.515-2.387,5.867C75.23,91.69,74,92.079,72.761,92.079z"></path>
    <path d="M75.719,61.194c-0.521,0-1.04-0.202-1.433-0.604c-0.771-0.791-0.754-2.057,0.037-2.828l13.893-13.541  c0.549-0.535,0.742-1.321,0.505-2.05s-0.855-1.251-1.613-1.361l-19.198-2.79c-1.094-0.159-1.851-1.173-1.692-2.267  s1.184-1.851,2.267-1.691l19.198,2.79c2.276,0.33,4.132,1.895,4.844,4.083c0.711,2.188,0.129,4.545-1.518,6.151L77.114,60.627  C76.726,61.006,76.222,61.194,75.719,61.194z"></path>
    <path d="M62.175,33.665c-0.738,0-1.447-0.409-1.796-1.115l-8.586-17.396c-0.339-0.688-1.026-1.115-1.793-1.115  s-1.454,0.427-1.793,1.115L39.621,32.55c-0.489,0.99-1.69,1.397-2.679,0.908c-0.99-0.489-1.397-1.688-0.908-2.679l8.586-17.396  c1.018-2.063,3.08-3.344,5.38-3.344s4.362,1.281,5.38,3.344l8.587,17.396c0.488,0.991,0.082,2.19-0.909,2.679  C62.773,33.599,62.472,33.665,62.175,33.665z"></path>
  </g>
</svg>
